<svg xmlns="http://www.w3.org/2000/svg" viewBox="0 0 64 64">
  <defs>
    <linearGradient id="tile" x1="0" y1="0" x2=".8" y2="1">
      <stop stop-color="#bfa2f1"/><stop offset="1" stop-color="#7862cb"/>
    </linearGradient>
    <linearGradient id="knob" x1="0" y1="0" x2="0" y2="1">
      <stop stop-color="#fff"/><stop offset="1" stop-color="#eae5fc"/>
    </linearGradient>
  </defs>
  <rect x="5" y="6" width="54" height="54" rx="14" fill="#594192" opacity=".12"/>
  <rect x="4" y="3" width="56" height="56" rx="14" fill="url(#tile)"/>
  <rect x="4.4" y="3.4" width="55.2" height="55.2" rx="13.6" fill="none" stroke="#fff" stroke-opacity=".38" stroke-width=".8"/>
  <g stroke="#493b8b" stroke-opacity=".27" stroke-width="3.5" stroke-linecap="round">
    <path d="M20 18V44M32 18V44M44 18V44"/>
  </g>
  <g stroke="#fff" stroke-opacity=".66" stroke-width="1.5" stroke-linecap="round">
    <path d="M20 18V44M32 18V44M44 18V44"/>
  </g>
  <g fill="#594394" opacity=".22">
    <circle cx="20" cy="28" r="5"/><circle cx="32" cy="39" r="5"/><circle cx="44" cy="25" r="5"/>
  </g>
  <g fill="url(#knob)" stroke="#fff" stroke-width=".65">
    <circle cx="20" cy="26" r="5"/><circle cx="32" cy="37" r="5"/><circle cx="44" cy="23" r="5"/>
  </g>
  <g stroke="#a997d8" stroke-width=".75" stroke-linecap="round">
    <path d="M18 26H22M30 37H34M42 23H46"/>
  </g>
</svg>
