<svg xmlns="http://www.w3.org/2000/svg" viewBox="0 0 64 64">
<defs><linearGradient id="back" x2="0" y2="1"><stop stop-color="#8de5ff"/><stop offset="1" stop-color="#288fd3"/></linearGradient><linearGradient id="front" x2=".2" y2="1"><stop stop-color="#89e5ff"/><stop offset=".35" stop-color="#4fc6f5"/><stop offset="1" stop-color="#168de1"/></linearGradient></defs><path d="M6 16Q6 10 12 10H24Q27 10 30 15H52Q59 15 59 22V51Q59 57 52 57H12Q5 57 5 50Z" fill="#075e9f" opacity=".18" transform="translate(0 3)"/><path d="M5 14Q5 8 11 8H24Q27 8 30 13H52Q59 13 59 20V49Q59 55 52 55H11Q5 55 5 49Z" fill="url(#back)" stroke="#a8ebff" stroke-width=".7"/><rect x="10" y="19" width="44" height="29" rx="3" fill="#e9fcff"/><path d="M14 17H51Q54 17 54 20V47H14Z" fill="#fff" opacity=".7"/><path d="M4 28Q4 23 10 23H54Q60 23 60 29L58 50Q57.5 56 51 56H12Q6 56 5.5 50Z" fill="url(#front)" stroke="#94e4ff" stroke-width=".7"/><path d="M10 25H54" stroke="#d2f7ff" opacity=".8" stroke-linecap="round"/><path d="M16 51H48" stroke="#086fb9" opacity=".25" stroke-width="1.2" stroke-linecap="round"/>
</svg>
