<svg xmlns="http://www.w3.org/2000/svg" viewBox="0 0 64 64">
  <defs>
    <linearGradient id="glass" x1="0" y1="0" x2="1" y2=".3">
      <stop stop-color="#d1e1eb" stop-opacity=".93"/><stop offset=".32" stop-color="#f4fbff" stop-opacity=".9"/><stop offset="1" stop-color="#b8cedd" stop-opacity=".96"/>
    </linearGradient>
    <linearGradient id="lid" x1="0" y1="0" x2=".5" y2="1">
      <stop stop-color="#fff"/><stop offset="1" stop-color="#c9dae7"/>
    </linearGradient>
  </defs>
  <ellipse cx="32" cy="55.8" rx="16" ry="2.5" fill="#23465d" opacity=".13"/>
  <path d="M16 19H48L45.5 50Q45 55 40 55H24Q19 55 18.5 50Z" fill="url(#glass)" stroke="#f5fbff" stroke-opacity=".85" stroke-width=".8"/>
  <path d="M21 23L23 48M28 23L28.7 49M36 23L35.3 49M43 23L41 48" fill="none" stroke="#698da6" stroke-opacity=".41" stroke-width="1.45" stroke-linecap="round"/>
  <path d="M22.2 23L24.2 48M29.2 23L29.9 49M37.2 23L36.5 49M44.2 23L42.2 48" fill="none" stroke="#fff" stroke-opacity=".66" stroke-width=".6" stroke-linecap="round"/>
  <path d="M26 13V10Q26 7 29 7H35Q38 7 38 10V13" fill="none" stroke="#c0d3e0" stroke-width="3" stroke-linecap="round"/>
  <path d="M26 12V10Q26 7 29 7H35Q38 7 38 10V12" fill="none" stroke="#fff" stroke-opacity=".8" stroke-width=".8" stroke-linecap="round"/>
  <rect x="13" y="13" width="38" height="7" rx="2.5" fill="url(#lid)" stroke="#fff" stroke-opacity=".8" stroke-width=".75"/>
  <path d="M17 16H47" stroke="#fff" stroke-opacity=".7" stroke-width=".8" stroke-linecap="round"/>
  <path d="M18 20H46" stroke="#7797ad" stroke-opacity=".36" stroke-width=".8"/>
</svg>
