<svg xmlns="http://www.w3.org/2000/svg" viewBox="0 0 64 64">
  <defs>
    <linearGradient id="tile" x1="0" y1="0" x2=".85" y2="1">
      <stop stop-color="#ffb16d"/><stop offset=".55" stop-color="#ff754e"/><stop offset="1" stop-color="#ec4b66"/>
    </linearGradient>
    <linearGradient id="fruit" x1=".2" y1="0" x2=".8" y2="1">
      <stop stop-color="#fff7d7"/><stop offset="1" stop-color="#ffdf9c"/>
    </linearGradient>
    <linearGradient id="leaf" x1="0" y1="0" x2="1" y2="1">
      <stop stop-color="#6cddad"/><stop offset="1" stop-color="#178c79"/>
    </linearGradient>
  </defs>
  <rect x="5" y="6" width="54" height="54" rx="14" fill="#ab384d" opacity=".12"/>
  <rect x="4" y="3" width="56" height="56" rx="14" fill="url(#tile)"/>
  <rect x="4.4" y="3.4" width="55.2" height="55.2" rx="13.6" fill="none" stroke="#fff" stroke-opacity=".38" stroke-width=".8"/>
  <circle cx="31.5" cy="35" r="16" fill="#b73645" opacity=".13"/>
  <circle cx="31.5" cy="32.5" r="16" fill="url(#fruit)"/>
  <path d="M31.5 20C31.8 12.7 37.1 10 44.4 11.6C43.2 18.6 37.7 22.1 31.5 20Z" fill="url(#leaf)"/>
  <path d="M32.4 20.5L39.6 15" fill="none" stroke="#c6f7cd" stroke-opacity=".58" stroke-width="1" stroke-linecap="round"/>
  <path d="M22 28C20.7 30.3 20.3 32.5 20.7 35" fill="none" stroke="#fff" stroke-opacity=".82" stroke-width="2.6" stroke-linecap="round"/>
  <circle cx="42.5" cy="44.3" r="1.1" fill="#fff6d9" opacity=".75"/>
</svg>
